<?xml version="1.0" encoding="iso-8859-1"?>
<!-- Generator: Adobe Illustrator 16.0.0, SVG Export Plug-In . SVG Version: 6.00 Build 0)  -->
<!DOCTYPE svg PUBLIC "-//W3C//DTD SVG 1.1//EN" "http://www.w3.org/Graphics/SVG/1.1/DTD/svg11.dtd">
<svg version="1.1" id="Capa_1" xmlns="http://www.w3.org/2000/svg" xmlns:xlink="http://www.w3.org/1999/xlink" x="0px" y="0px"
	 width="592.018px" height="592.018px" viewBox="0 0 592.018 592.018" style="enable-background:new 0 0 592.018 592.018;"
	 xml:space="preserve">
<g>
	<g>
		<g>
			<circle cx="503.441" cy="93.853" r="21.216"/>
			<path d="M503.441,115.569c-11.975,0-21.717-9.742-21.717-21.716c0-11.975,9.742-21.716,21.717-21.716
				c11.974,0,21.715,9.742,21.715,21.716C525.156,105.827,515.415,115.569,503.441,115.569z M503.441,73.137
				c-11.423,0-20.717,9.293-20.717,20.716s9.294,20.716,20.717,20.716c11.422,0,20.715-9.293,20.715-20.716
				S514.863,73.137,503.441,73.137z"/>
		</g>
		<g>
			<circle cx="440.201" cy="93.853" r="21.216"/>
			<path d="M440.201,115.569c-11.975,0-21.717-9.742-21.717-21.716c0-11.975,9.742-21.716,21.717-21.716
				c11.974,0,21.715,9.742,21.715,21.716C461.916,105.827,452.175,115.569,440.201,115.569z M440.201,73.137
				c-11.423,0-20.717,9.293-20.717,20.716s9.294,20.716,20.717,20.716c11.422,0,20.715-9.293,20.715-20.716
				S451.623,73.137,440.201,73.137z"/>
		</g>
		<g>
			<circle cx="376.961" cy="93.853" r="21.216"/>
			<path d="M376.961,115.569c-11.975,0-21.717-9.742-21.717-21.716c0-11.975,9.742-21.716,21.717-21.716s21.717,9.742,21.717,21.716
				C398.678,105.827,388.936,115.569,376.961,115.569z M376.961,73.137c-11.423,0-20.717,9.293-20.717,20.716
				s9.294,20.716,20.717,20.716s20.717-9.293,20.717-20.716S388.384,73.137,376.961,73.137z"/>
		</g>
		<g>
			<path d="M591.518,524.858V67.16c0-32.058-26.082-58.14-58.141-58.14H58.64C26.582,9.02,0.5,35.102,0.5,67.16v457.698
				c0,32.058,26.082,58.14,58.14,58.14h474.737C565.436,582.998,591.518,556.916,591.518,524.858z M43.34,67.16
				c0-8.45,6.85-15.3,15.3-15.3h474.737c8.449,0,15.301,6.85,15.301,15.3v65.484H43.34V67.16z M43.34,524.858V175.484h505.338
				v349.374c0,8.449-6.852,15.3-15.301,15.3H58.64C50.19,540.158,43.34,533.307,43.34,524.858z"/>
			<path d="M533.377,583.498H58.64c-32.334,0-58.64-26.306-58.64-58.64V67.16C0,34.826,26.306,8.52,58.64,8.52h474.737
				c32.335,0,58.641,26.306,58.641,58.64v457.698C592.018,557.192,565.712,583.498,533.377,583.498z M58.64,9.52
				C26.857,9.52,1,35.377,1,67.16v457.698c0,31.782,25.857,57.64,57.64,57.64h474.737c31.783,0,57.641-25.857,57.641-57.64V67.16
				c0-31.783-25.857-57.64-57.641-57.64H58.64z M533.377,540.658H58.64c-8.712,0-15.8-7.088-15.8-15.8V174.984h506.338v349.874
				C549.178,533.57,542.09,540.658,533.377,540.658z M43.84,175.984v348.874c0,8.161,6.64,14.8,14.8,14.8h474.737
				c8.161,0,14.801-6.639,14.801-14.8V175.984H43.84z M549.178,133.144H42.84V67.16c0-8.712,7.088-15.8,15.8-15.8h474.737
				c8.713,0,15.801,7.088,15.801,15.8V133.144z M43.84,132.144h504.338V67.16c0-8.161-6.64-14.8-14.801-14.8H58.64
				c-8.161,0-14.8,6.639-14.8,14.8V132.144z"/>
		</g>
	</g>
</g>
<g>
</g>
<g>
</g>
<g>
</g>
<g>
</g>
<g>
</g>
<g>
</g>
<g>
</g>
<g>
</g>
<g>
</g>
<g>
</g>
<g>
</g>
<g>
</g>
<g>
</g>
<g>
</g>
<g>
</g>
</svg>
