<?xml version="1.0" encoding="iso-8859-1"?>
<!-- Generator: Adobe Illustrator 18.1.1, SVG Export Plug-In . SVG Version: 6.00 Build 0)  -->
<svg version="1.1" id="Capa_1" xmlns="http://www.w3.org/2000/svg" xmlns:xlink="http://www.w3.org/1999/xlink" x="0px" y="0px"
	 viewBox="0 0 16 16" style="enable-background:new 0 0 16 16;" xml:space="preserve">
<g>
	<g>
		<path style="fill:#030104;" d="M15,7.085V1H1v6.085C0.417,7.291,0,7.847,0,8.5c0,0.652,0.417,1.209,1,1.415V15h14V9.915
			c0.583-0.206,1-0.763,1-1.415C16,7.847,15.583,7.291,15,7.085z M14,7.085c-0.583,0.206-1,0.762-1,1.415
			c0,0.652,0.417,1.209,1,1.415V14H2V9.915C2.583,9.709,3,9.152,3,8.5c0-0.653-0.417-1.209-1-1.415V2h12V7.085z"/>
		<polygon style="fill:#030104;" points="5,5 7,5 7,11 6,11 6,12 10,12 10,11 9,11 9,5 11,5 11,6 12,6 12,5 12,4 4,4 4,5 4,6 5,6 		
			"/>
	</g>
</g>
<g>
</g>
<g>
</g>
<g>
</g>
<g>
</g>
<g>
</g>
<g>
</g>
<g>
</g>
<g>
</g>
<g>
</g>
<g>
</g>
<g>
</g>
<g>
</g>
<g>
</g>
<g>
</g>
<g>
</g>
</svg>
